<svg width="1429" height="1047" viewBox="0 0 1429 1047" fill="none" xmlns="http://www.w3.org/2000/svg">
<rect x="22" y="3" width="1400" height="1024" fill="#F1F1F1"/>
<g filter="url(#filter0_d_208_146)">
<path d="M618.5 220L1427.5 489L1422 1027H640L206 684L618.5 220Z" fill="#3E3C72"/>
<path d="M618.5 220L1427.5 489L1422 1027H640L206 684L618.5 220Z" stroke="black"/>
</g>
<g filter="url(#filter1_d_208_146)">
<path d="M563.5 88L1422 363.324V3H774.424L118.5 224L21 3V1028H533.768L58.5 639.5L563.5 88Z" fill="#3E3C72"/>
<path d="M563.5 88L1422 363.324V3H774.424L118.5 224L21 3V1028H533.768L58.5 639.5L563.5 88Z" stroke="black"/>
</g>
<g filter="url(#filter2_d_208_146)">
<path d="M663 3H77L150.5 149L663 3Z" fill="#3E3C72"/>
<path d="M663 3H77L150.5 149L663 3Z" stroke="black"/>
</g>
<g filter="url(#filter3_d_208_146)">
<path d="M174.387 624.362L148.595 600.837L158.014 590.51C159.744 588.613 161.469 587.286 163.188 586.532C164.907 585.777 166.557 585.536 168.138 585.809C169.711 586.075 171.143 586.797 172.436 587.977C173.444 588.896 174.146 589.905 174.542 591.005C174.93 592.097 175.046 593.218 174.89 594.367C174.733 595.501 174.345 596.608 173.728 597.691L173.979 597.92C174.917 596.976 176.033 596.31 177.326 595.92C178.627 595.523 179.984 595.476 181.398 595.781C182.803 596.079 184.14 596.806 185.408 597.962C186.776 599.21 187.688 600.664 188.142 602.325C188.596 603.969 188.532 605.733 187.951 607.618C187.37 609.503 186.199 611.411 184.438 613.342L174.387 624.362ZM174.902 614.842L178.957 610.397C180.343 608.877 181.064 607.504 181.121 606.279C181.168 605.046 180.705 603.986 179.732 603.097C179.018 602.446 178.231 602.044 177.371 601.891C176.512 601.737 175.636 601.838 174.743 602.193C173.858 602.539 173.017 603.149 172.221 604.022L168.051 608.593L174.902 614.842ZM164.361 605.228L168.048 601.185C168.73 600.438 169.205 599.656 169.473 598.839C169.74 598.007 169.784 597.2 169.603 596.42C169.43 595.632 169.003 594.928 168.323 594.307C167.391 593.457 166.338 593.103 165.162 593.246C163.993 593.38 162.858 594.052 161.755 595.261L157.976 599.404L164.361 605.228ZM204.494 565.451C207.306 568.016 209.213 570.732 210.213 573.598C211.222 576.455 211.412 579.274 210.783 582.054C210.154 584.818 208.802 587.337 206.727 589.612C204.636 591.905 202.24 593.487 199.537 594.359C196.834 595.231 194.014 595.297 191.076 594.555C188.138 593.813 185.267 592.164 182.462 589.606C179.65 587.041 177.739 584.329 176.731 581.472C175.723 578.614 175.534 575.804 176.163 573.04C176.783 570.268 178.139 567.737 180.229 565.445C182.305 563.169 184.694 561.596 187.396 560.723C190.099 559.835 192.919 559.761 195.856 560.503C198.802 561.236 201.681 562.886 204.494 565.451ZM199.451 570.98C197.629 569.318 195.844 568.19 194.095 567.594C192.354 566.991 190.712 566.885 189.17 567.278C187.627 567.67 186.255 568.526 185.053 569.844C183.851 571.162 183.125 572.607 182.875 574.179C182.626 575.751 182.878 577.381 183.631 579.067C184.392 580.746 185.683 582.416 187.505 584.077C189.327 585.739 191.108 586.872 192.85 587.475C194.598 588.071 196.244 588.172 197.786 587.779C199.329 587.387 200.701 586.531 201.903 585.213C203.106 583.895 203.832 582.45 204.081 580.878C204.33 579.306 204.075 577.681 203.314 576.002C202.561 574.316 201.273 572.641 199.451 570.98ZM215.461 542.423C214.354 541.597 213.17 541.31 211.911 541.561C210.651 541.812 209.424 542.592 208.23 543.902C207.418 544.792 206.858 545.658 206.551 546.501C206.236 547.336 206.147 548.116 206.285 548.842C206.431 549.559 206.78 550.17 207.335 550.676C207.781 551.114 208.272 551.385 208.808 551.489C209.351 551.584 209.921 551.558 210.517 551.41C211.106 551.254 211.718 551.013 212.354 550.686C212.982 550.352 213.616 549.961 214.255 549.513L216.923 547.701C218.201 546.806 219.478 546.079 220.756 545.522C222.033 544.964 223.293 544.621 224.533 544.492C225.774 544.362 226.983 544.488 228.158 544.868C229.342 545.24 230.475 545.912 231.557 546.883C233.128 548.331 234.129 549.983 234.56 551.837C234.99 553.675 234.843 555.633 234.118 557.709C233.392 559.77 232.072 561.849 230.158 563.948C228.259 566.03 226.286 567.553 224.238 568.516C222.199 569.47 220.159 569.809 218.12 569.533C216.079 569.241 214.112 568.27 212.218 566.619L217.031 561.342C217.95 562.072 218.897 562.483 219.875 562.575C220.852 562.651 221.824 562.453 222.792 561.982C223.759 561.496 224.671 560.782 225.529 559.842C226.371 558.918 226.968 557.994 227.32 557.069C227.679 556.135 227.792 555.261 227.658 554.447C227.524 553.633 227.146 552.942 226.525 552.375C225.945 551.847 225.301 551.575 224.593 551.559C223.892 551.535 223.104 551.724 222.23 552.126C221.363 552.52 220.388 553.084 219.303 553.817L216.037 555.983C213.524 557.675 211.131 558.637 208.858 558.871C206.584 559.104 204.498 558.347 202.6 556.6C201.03 555.185 200.045 553.525 199.644 551.621C199.25 549.708 199.4 547.714 200.093 545.639C200.786 543.564 201.99 541.587 203.705 539.706C205.451 537.792 207.302 536.42 209.259 535.59C211.223 534.751 213.153 534.465 215.047 534.732C216.942 534.999 218.669 535.821 220.228 537.197L215.461 542.423ZM236.657 519.184C235.549 518.358 234.366 518.071 233.106 518.322C231.847 518.573 230.62 519.353 229.425 520.663C228.614 521.553 228.054 522.419 227.747 523.262C227.432 524.097 227.343 524.877 227.481 525.603C227.626 526.32 227.976 526.931 228.53 527.437C228.977 527.875 229.468 528.146 230.003 528.25C230.547 528.346 231.117 528.319 231.713 528.171C232.301 528.016 232.914 527.774 233.55 527.447C234.178 527.113 234.812 526.722 235.451 526.274L238.118 524.462C239.396 523.567 240.674 522.841 241.952 522.283C243.229 521.726 244.488 521.382 245.729 521.253C246.97 521.123 248.178 521.249 249.354 521.629C250.537 522.001 251.67 522.673 252.753 523.645C254.323 525.093 255.324 526.744 255.756 528.598C256.186 530.437 256.039 532.394 255.314 534.47C254.588 536.531 253.268 538.61 251.353 540.709C249.454 542.792 247.481 544.314 245.434 545.277C243.395 546.231 241.355 546.571 239.315 546.294C237.275 546.002 235.308 545.031 233.414 543.38L238.227 538.104C239.145 538.834 240.093 539.244 241.071 539.336C242.047 539.412 243.02 539.214 243.987 538.744C244.954 538.257 245.867 537.543 246.724 536.603C247.567 535.679 248.164 534.755 248.515 533.83C248.875 532.896 248.987 532.022 248.853 531.208C248.719 530.394 248.342 529.703 247.72 529.137C247.141 528.608 246.497 528.336 245.789 528.32C245.088 528.296 244.3 528.485 243.426 528.888C242.559 529.281 241.583 529.845 240.499 530.579L237.232 532.744C234.72 534.436 232.327 535.399 230.053 535.632C227.78 535.865 225.694 535.108 223.795 533.362C222.226 531.946 221.241 530.286 220.84 528.382C220.446 526.469 220.596 524.476 221.288 522.401C221.981 520.326 223.185 518.348 224.901 516.467C226.647 514.553 228.498 513.181 230.455 512.351C232.419 511.512 234.349 511.227 236.243 511.493C238.138 511.76 239.865 512.582 241.424 513.958L236.657 519.184ZM259.342 501.041L263.599 504.924L252.87 516.686L248.613 512.804L259.342 501.041ZM282.622 472.027L277.591 477.543C276.785 476.993 275.964 476.62 275.126 476.425C274.28 476.223 273.438 476.185 272.599 476.312C271.76 476.439 270.945 476.726 270.153 477.173C269.369 477.611 268.64 478.2 267.966 478.938C266.749 480.273 266.02 481.739 265.779 483.334C265.53 484.922 265.787 486.564 266.549 488.258C267.302 489.945 268.573 491.604 270.361 493.235C272.2 494.912 273.993 496.048 275.742 496.643C277.498 497.23 279.148 497.319 280.689 496.91C282.231 496.502 283.595 495.647 284.782 494.345C285.448 493.615 285.968 492.851 286.342 492.054C286.723 491.248 286.951 490.433 287.026 489.609C287.092 488.777 287.002 487.957 286.756 487.148C286.517 486.33 286.111 485.545 285.537 484.791L290.594 479.298C291.647 480.52 292.464 481.918 293.043 483.492C293.621 485.051 293.906 486.702 293.898 488.448C293.889 490.178 293.536 491.932 292.837 493.71C292.138 495.471 291.034 497.179 289.525 498.833C287.427 501.133 285.03 502.716 282.335 503.579C279.648 504.435 276.839 504.488 273.909 503.738C270.986 502.979 268.123 501.321 265.318 498.763C262.506 496.198 260.595 493.487 259.587 490.629C258.579 487.772 258.386 484.965 259.007 482.21C259.62 479.447 260.96 476.932 263.028 474.665C264.391 473.171 265.864 471.977 267.448 471.083C269.039 470.182 270.69 469.603 272.4 469.347C274.101 469.084 275.814 469.17 277.539 469.606C279.272 470.033 280.967 470.84 282.622 472.027ZM311.673 447.941C314.485 450.506 316.392 453.222 317.392 456.088C318.4 458.945 318.59 461.764 317.962 464.544C317.333 467.308 315.981 469.827 313.906 472.102C311.815 474.394 309.418 475.977 306.716 476.849C304.013 477.721 301.192 477.787 298.254 477.045C295.317 476.303 292.445 474.654 289.641 472.096C286.829 469.531 284.918 466.819 283.91 463.962C282.902 461.104 282.712 458.294 283.341 455.53C283.962 452.758 285.318 450.227 287.408 447.935C289.483 445.659 291.872 444.085 294.575 443.213C297.277 442.325 300.097 442.251 303.035 442.993C305.981 443.726 308.86 445.376 311.673 447.941ZM306.63 453.47C304.808 451.808 303.023 450.679 301.274 450.084C299.533 449.481 297.891 449.375 296.349 449.768C294.806 450.16 293.434 451.016 292.232 452.334C291.029 453.652 290.303 455.097 290.054 456.669C289.805 458.241 290.056 459.87 290.81 461.557C291.571 463.236 292.862 464.906 294.684 466.567C296.506 468.229 298.287 469.362 300.028 469.965C301.777 470.561 303.423 470.662 304.965 470.269C306.508 469.877 307.88 469.021 309.082 467.703C310.284 466.385 311.01 464.94 311.26 463.368C311.509 461.796 311.254 460.171 310.493 458.492C309.739 456.806 308.452 455.131 306.63 453.47ZM322.137 410.566L347.93 434.091L343.634 438.801L317.166 435.215L316.993 435.404L333.227 450.211L328.253 455.664L302.461 432.139L306.826 427.354L333.201 431.015L333.408 430.789L317.187 415.994L322.137 410.566ZM329.847 411.144L325.351 407.043L344.671 385.86L349.167 389.961L341.965 397.857L363.261 417.281L358.345 422.671L337.049 403.247L329.847 411.144ZM373.645 405.896L347.853 382.371L357.134 372.196C358.911 370.248 360.775 368.903 362.728 368.162C364.68 367.404 366.619 367.243 368.546 367.677C370.471 368.095 372.286 369.082 373.991 370.636C375.703 372.198 376.84 373.912 377.4 375.776C377.952 377.633 377.916 379.561 377.292 381.561C376.676 383.552 375.464 385.538 373.657 387.519L367.443 394.333L363.06 390.335L368.47 384.404C369.42 383.363 370.066 382.368 370.408 381.419C370.751 380.47 370.79 379.567 370.525 378.711C370.268 377.846 369.716 377.027 368.868 376.253C368.011 375.472 367.132 374.986 366.231 374.794C365.337 374.594 364.421 374.704 363.483 375.125C362.544 375.53 361.596 376.258 360.639 377.307L357.285 380.985L378.619 400.443L373.645 405.896ZM374.612 381.262L392.196 385.557L386.706 391.577L369.248 387.143L374.612 381.262ZM403.594 347.159C406.407 349.724 408.313 352.44 409.314 355.305C410.322 358.163 410.512 360.982 409.884 363.761C409.255 366.525 407.903 369.045 405.827 371.32C403.737 373.612 401.34 375.194 398.637 376.067C395.934 376.939 393.114 377.004 390.176 376.263C387.238 375.521 384.367 373.871 381.563 371.314C378.75 368.748 376.84 366.037 375.832 363.179C374.824 360.322 374.634 357.511 375.263 354.748C375.884 351.976 377.239 349.444 379.33 347.152C381.405 344.877 383.794 343.303 386.497 342.431C389.199 341.542 392.019 341.469 394.957 342.211C397.903 342.944 400.782 344.593 403.594 347.159ZM398.552 352.687C396.73 351.026 394.944 349.897 393.196 349.302C391.455 348.698 389.813 348.593 388.27 348.985C386.728 349.378 385.356 350.233 384.153 351.552C382.951 352.87 382.225 354.315 381.976 355.887C381.726 357.459 381.978 359.088 382.731 360.775C383.492 362.453 384.784 364.123 386.606 365.785C388.427 367.447 390.209 368.579 391.95 369.183C393.699 369.778 395.344 369.88 396.887 369.487C398.429 369.094 399.802 368.239 401.004 366.921C402.206 365.603 402.932 364.158 403.181 362.586C403.431 361.014 403.175 359.388 402.414 357.71C401.661 356.023 400.374 354.349 398.552 352.687ZM420.175 354.881L394.382 331.357L399.356 325.904L420.652 345.328L430.738 334.27L435.234 338.371L420.175 354.881Z" fill="#3E3C72"/>
</g>
<defs>
<filter id="filter0_d_208_146" x="185.274" y="201.422" width="1242.73" height="828.078" filterUnits="userSpaceOnUse" color-interpolation-filters="sRGB">
<feFlood flood-opacity="0" result="BackgroundImageFix"/>
<feColorMatrix in="SourceAlpha" type="matrix" values="0 0 0 0 0 0 0 0 0 0 0 0 0 0 0 0 0 0 127 0" result="hardAlpha"/>
<feOffset dx="-10" dy="-8"/>
<feGaussianBlur stdDeviation="5"/>
<feComposite in2="hardAlpha" operator="out"/>
<feColorMatrix type="matrix" values="0 0 0 0 0 0 0 0 0 0 0 0 0 0 0 0 0 0 0.25 0"/>
<feBlend mode="normal" in2="BackgroundImageFix" result="effect1_dropShadow_208_146"/>
<feBlend mode="normal" in="SourceGraphic" in2="effect1_dropShadow_208_146" result="shape"/>
</filter>
<filter id="filter1_d_208_146" x="0.5" y="0.5" width="1422" height="1046" filterUnits="userSpaceOnUse" color-interpolation-filters="sRGB">
<feFlood flood-opacity="0" result="BackgroundImageFix"/>
<feColorMatrix in="SourceAlpha" type="matrix" values="0 0 0 0 0 0 0 0 0 0 0 0 0 0 0 0 0 0 127 0" result="hardAlpha"/>
<feOffset dx="-10" dy="8"/>
<feGaussianBlur stdDeviation="5"/>
<feComposite in2="hardAlpha" operator="out"/>
<feColorMatrix type="matrix" values="0 0 0 0 0 0 0 0 0 0 0 0 0 0 0 0 0 0 0.25 0"/>
<feBlend mode="normal" in2="BackgroundImageFix" result="effect1_dropShadow_208_146"/>
<feBlend mode="normal" in="SourceGraphic" in2="effect1_dropShadow_208_146" result="shape"/>
</filter>
<filter id="filter2_d_208_146" x="56.1885" y="0.5" width="606.948" height="167.094" filterUnits="userSpaceOnUse" color-interpolation-filters="sRGB">
<feFlood flood-opacity="0" result="BackgroundImageFix"/>
<feColorMatrix in="SourceAlpha" type="matrix" values="0 0 0 0 0 0 0 0 0 0 0 0 0 0 0 0 0 0 127 0" result="hardAlpha"/>
<feOffset dx="-10" dy="8"/>
<feGaussianBlur stdDeviation="5"/>
<feComposite in2="hardAlpha" operator="out"/>
<feColorMatrix type="matrix" values="0 0 0 0 0 0 0 0 0 0 0 0 0 0 0 0 0 0 0.25 0"/>
<feBlend mode="normal" in2="BackgroundImageFix" result="effect1_dropShadow_208_146"/>
<feBlend mode="normal" in="SourceGraphic" in2="effect1_dropShadow_208_146" result="shape"/>
</filter>
<filter id="filter3_d_208_146" x="148.242" y="312.525" width="307.357" height="330.17" filterUnits="userSpaceOnUse" color-interpolation-filters="sRGB">
<feFlood flood-opacity="0" result="BackgroundImageFix"/>
<feColorMatrix in="SourceAlpha" type="matrix" values="0 0 0 0 0 0 0 0 0 0 0 0 0 0 0 0 0 0 127 0" result="hardAlpha"/>
<feOffset dx="10" dy="8"/>
<feGaussianBlur stdDeviation="5"/>
<feComposite in2="hardAlpha" operator="out"/>
<feColorMatrix type="matrix" values="0 0 0 0 0 0 0 0 0 0 0 0 0 0 0 0 0 0 0.25 0"/>
<feBlend mode="normal" in2="BackgroundImageFix" result="effect1_dropShadow_208_146"/>
<feBlend mode="normal" in="SourceGraphic" in2="effect1_dropShadow_208_146" result="shape"/>
</filter>
</defs>
</svg>
